# Made in Blockbench 5.2.0
mtllib model.mtl

o Head
v 0.2688634107446682 1.9892655301300985 0.28297977836590826
v 0.18205990231942376 2.032325853060973 -0.20754133179568038
v 0.2893914643332554 1.491930487371784 0.23568861364722257
v 0.20258795590801099 1.534990810302659 -0.25483249651436607
v -0.30991951792184264 2.0039768877593165 -0.12296836788053286
v -0.2231160094965982 1.9609165648284417 0.3675527422810557
v -0.2893914643332554 1.5066418450010024 -0.17025953259921855
v -0.20258795590801099 1.4635815220701274 0.32026157756237006
vt 0.125 0.875
vt 0.25 0.875
vt 0.25 0.75
vt 0.125 0.75
vt 0 0.875
vt 0.125 0.875
vt 0.125 0.75
vt 0 0.75
vt 0.375 0.875
vt 0.5 0.875
vt 0.5 0.75
vt 0.375 0.75
vt 0.25 0.875
vt 0.375 0.875
vt 0.375 0.75
vt 0.25 0.75
vt 0.25 0.875
vt 0.125 0.875
vt 0.125 1
vt 0.25 1
vt 0.375 1
vt 0.25 1
vt 0.25 0.875
vt 0.375 0.875
vn -0.17360701685048885 0.08612064586174968 -0.9810422203231772
vn 0.9839588404825328 0.0566979306033137 -0.16914592783029497
vn 0.17360701685048885 -0.08612064586174968 0.9810422203231772
vn -0.9839588404825328 -0.0566979306033137 0.16914592783029497
vn -0.041056107177174395 0.9946700855166285 0.0945823294373714
vn 0.041056107177174395 -0.9946700855166285 -0.0945823294373714
usemtl m_8890fb92-5a47-bb23-30ad-143a7904f091
f 4/4/1 7/3/1 5/2/1 2/1/1
f 3/8/2 4/7/2 2/6/2 1/5/2
f 8/12/3 3/11/3 1/10/3 6/9/3
f 7/16/4 8/15/4 6/14/4 5/13/4
f 6/20/5 1/19/5 2/18/5 5/17/5
f 7/24/6 4/23/6 3/22/6 8/21/6
o Hat Layer
v 0.3037543404370384 2.019429510450667 0.3113072353012287
v 0.20610039345863845 2.0678723737479014 -0.2405290136305585
v 0.326848400724199 1.4599275873475637 0.2581046749927073
v 0.22919445374579905 1.508370450644798 -0.2937315739390799
v -0.3473764543127862 2.0359797877835373 -0.14538442922601758
v -0.24972250733438628 1.9875369244863028 0.4064518197057696
v -0.32428239402562564 1.4764778646804337 -0.198586989534539
v -0.22662844704722573 1.4280350013831995 0.35324925939724816
vt 0.625 0.875
vt 0.75 0.875
vt 0.75 0.75
vt 0.625 0.75
vt 0.5 0.875
vt 0.625 0.875
vt 0.625 0.75
vt 0.5 0.75
vt 0.875 0.875
vt 1 0.875
vt 1 0.75
vt 0.875 0.75
vt 0.75 0.875
vt 0.875 0.875
vt 0.875 0.75
vt 0.75 0.75
vt 0.75 0.875
vt 0.625 0.875
vt 0.625 1
vt 0.75 1
vt 0.875 1
vt 0.75 1
vt 0.75 0.875
vt 0.875 0.875
vn -0.17360701685048885 0.08612064586174968 -0.9810422203231772
vn 0.9839588404825328 0.0566979306033137 -0.16914592783029497
vn 0.17360701685048885 -0.08612064586174968 0.9810422203231772
vn -0.9839588404825328 -0.0566979306033137 0.16914592783029497
vn -0.041056107177174395 0.9946700855166285 0.0945823294373714
vn 0.041056107177174395 -0.9946700855166285 -0.0945823294373714
usemtl m_8890fb92-5a47-bb23-30ad-143a7904f091
f 12/28/7 15/27/7 13/26/7 10/25/7
f 11/32/8 12/31/8 10/30/8 9/29/8
f 16/36/9 11/35/9 9/34/9 14/33/9
f 15/40/10 16/39/10 14/38/10 13/37/10
f 14/44/11 9/43/11 10/42/11 13/41/11
f 15/48/12 12/47/12 11/46/12 16/45/12
o Body
v 0.25 1.4938337427657262 0.15759556822173423
v 0.25 1.5047385896070602 -0.09216648717373022
v 0.25 0.7445475765793329 0.12488102769773224
v 0.25 0.7554524234206669 -0.12488102769773221
v -0.25 1.5047385896070602 -0.09216648717373022
v -0.25 1.4938337427657262 0.15759556822173423
v -0.25 0.7554524234206669 -0.12488102769773221
v -0.25 0.7445475765793329 0.12488102769773224
vt 0.3125 0.6875
vt 0.4375 0.6875
vt 0.4375 0.5
vt 0.3125 0.5
vt 0.25 0.6875
vt 0.3125 0.6875
vt 0.3125 0.5
vt 0.25 0.5
vt 0.5 0.6875
vt 0.625 0.6875
vt 0.625 0.5
vt 0.5 0.5
vt 0.4375 0.6875
vt 0.5 0.6875
vt 0.5 0.5
vt 0.4375 0.5
vt 0.4375 0.6875
vt 0.3125 0.6875
vt 0.3125 0.75
vt 0.4375 0.75
vt 0.5625 0.75
vt 0.4375 0.75
vt 0.4375 0.6875
vt 0.5625 0.6875
vn 0 0.043619387365336 -0.9990482215818578
vn 1 0 0
vn 0 -0.043619387365336 0.9990482215818578
vn -1 0 0
vn 0 0.9990482215818578 0.043619387365336
vn 0 -0.9990482215818578 -0.043619387365336
usemtl m_8890fb92-5a47-bb23-30ad-143a7904f091
f 20/52/13 23/51/13 21/50/13 18/49/13
f 19/56/14 20/55/14 18/54/14 17/53/14
f 24/60/15 19/59/15 17/58/15 22/57/15
f 23/64/16 24/63/16 22/62/16 21/61/16
f 22/68/17 17/67/17 18/66/17 21/65/17
f 23/72/18 20/71/18 19/70/18 24/69/18
o Body Layer
v 0.265625 1.5087623183003593 0.17388724961153415
v 0.265625 1.5210302709968602 -0.10709506270836339
v 0.265625 0.7282558951895329 0.13980960323236538
v 0.265625 0.7405238478860338 -0.14117270908753213
v -0.265625 1.5210302709968602 -0.10709506270836339
v -0.265625 1.5087623183003593 0.17388724961153415
v -0.265625 0.7405238478860338 -0.14117270908753213
v -0.265625 0.7282558951895329 0.13980960323236538
vt 0.3125 0.4375
vt 0.4375 0.4375
vt 0.4375 0.25
vt 0.3125 0.25
vt 0.25 0.4375
vt 0.3125 0.4375
vt 0.3125 0.25
vt 0.25 0.25
vt 0.5 0.4375
vt 0.625 0.4375
vt 0.625 0.25
vt 0.5 0.25
vt 0.4375 0.4375
vt 0.5 0.4375
vt 0.5 0.25
vt 0.4375 0.25
vt 0.4375 0.4375
vt 0.3125 0.4375
vt 0.3125 0.5
vt 0.4375 0.5
vt 0.5625 0.5
vt 0.4375 0.5
vt 0.4375 0.4375
vt 0.5625 0.4375
vn 0 0.043619387365336 -0.9990482215818578
vn 1 0 0
vn 0 -0.043619387365336 0.9990482215818578
vn -1 0 0
vn 0 0.9990482215818578 0.043619387365336
vn 0 -0.9990482215818578 -0.043619387365336
usemtl m_8890fb92-5a47-bb23-30ad-143a7904f091
f 28/76/19 31/75/19 29/74/19 26/73/19
f 27/80/20 28/79/20 26/78/20 25/77/20
f 32/84/21 27/83/21 25/82/21 30/81/21
f 31/88/22 32/87/22 30/86/22 29/85/22
f 30/92/23 25/91/23 26/90/23 29/89/23
f 31/96/24 28/95/24 27/94/24 32/93/24
o Right Arm
v 0.4150876634662252 1.5040943701333827 0.16701716889017487
v 0.44815974689591315 1.5040088273973546 -0.08078563573491421
v 0.44322135154379283 0.7546329717918988 0.17103064508691235
v 0.47629343497348076 0.7545474290558708 -0.07677215953817673
v 0.2624407671049175 1.4969044865676644 -0.10556947899554159
v 0.2293686836752296 1.4969900293036924 0.1422333256295475
v 0.29057445518248504 0.7474430882261806 -0.1015560027988041
v 0.2575023717527972 0.7475286309622086 0.146246801826285
vt 0.6875 0.6875
vt 0.734375 0.6875
vt 0.734375 0.5
vt 0.6875 0.5
vt 0.625 0.6875
vt 0.6875 0.6875
vt 0.6875 0.5
vt 0.625 0.5
vt 0.796875 0.6875
vt 0.84375 0.6875
vt 0.84375 0.5
vt 0.796875 0.5
vt 0.734375 0.6875
vt 0.796875 0.6875
vt 0.796875 0.5
vt 0.734375 0.5
vt 0.734375 0.6875
vt 0.6875 0.6875
vt 0.6875 0.75
vt 0.734375 0.75
vt 0.78125 0.75
vt 0.734375 0.75
vt 0.734375 0.6875
vt 0.78125 0.6875
vn 0.13228833371875148 -0.00034217094411174813 -0.9912112185003564
vn 0.990501225551977 0.03788981775834798 0.13218049739001272
vn -0.13228833371875148 0.00034217094411174813 0.9912112185003564
vn -0.990501225551977 -0.03788981775834798 -0.13218049739001272
vn -0.03751158410342344 0.999281864455312 -0.00535130159564998
vn 0.03751158410342344 -0.999281864455312 0.00535130159564998
usemtl m_8890fb92-5a47-bb23-30ad-143a7904f091
f 36/100/25 39/99/25 37/98/25 34/97/25
f 35/104/26 36/103/26 34/102/26 33/101/26
f 40/108/27 35/107/27 33/106/27 38/105/27
f 39/112/28 40/111/28 38/110/28 37/109/28
f 38/116/29 33/115/29 34/114/29 37/113/29
f 39/120/30 36/119/30 35/118/30 40/117/30
o Right Arm Layer
v 0.4279111213995034 1.5203055240889727 0.18448655036352987
v 0.4651172152579023 1.5202092885109413 -0.09429160483969537
v 0.4572170464803029 0.7396165674832604 0.1886672547351314
v 0.4944231403387018 0.739520331905229 -0.09011090046809384
v 0.24844507216840736 1.5119208908763027 -0.12320608864376065
v 0.2112389783100085 1.512017126454334 0.1555720665594646
v 0.27775099724920693 0.7312319342705904 -0.1190253842721591
v 0.24054490339080806 0.7313281698486218 0.15975277093106613
vt 0.6875 0.4375
vt 0.734375 0.4375
vt 0.734375 0.25
vt 0.6875 0.25
vt 0.625 0.4375
vt 0.6875 0.4375
vt 0.6875 0.25
vt 0.625 0.25
vt 0.796875 0.4375
vt 0.84375 0.4375
vt 0.84375 0.25
vt 0.796875 0.25
vt 0.734375 0.4375
vt 0.796875 0.4375
vt 0.796875 0.25
vt 0.734375 0.25
vt 0.734375 0.4375
vt 0.6875 0.4375
vt 0.6875 0.5
vt 0.734375 0.5
vt 0.78125 0.5
vt 0.734375 0.5
vt 0.734375 0.4375
vt 0.78125 0.4375
vn 0.13228833371875148 -0.00034217094411174813 -0.9912112185003564
vn 0.990501225551977 0.03788981775834798 0.13218049739001272
vn -0.13228833371875148 0.00034217094411174813 0.9912112185003564
vn -0.990501225551977 -0.03788981775834798 -0.13218049739001272
vn -0.03751158410342344 0.999281864455312 -0.00535130159564998
vn 0.03751158410342344 -0.999281864455312 0.00535130159564998
usemtl m_8890fb92-5a47-bb23-30ad-143a7904f091
f 44/124/31 47/123/31 45/122/31 42/121/31
f 43/128/32 44/127/32 42/126/32 41/125/32
f 48/132/33 43/131/33 41/130/33 46/129/33
f 47/136/34 48/135/34 46/134/34 45/133/34
f 46/140/35 41/139/35 42/138/35 45/137/35
f 47/144/36 44/143/36 43/142/36 48/141/36
o Left Arm
v -0.21900076816329578 1.4943196939865266 0.1369646377019773
v -0.2729047671288367 1.4990356828147247 -0.10710936407800593
v -0.25248782304361506 0.745101114048722 0.1298839151808005
v -0.30639182200915605 0.74981710287692 -0.11419008659918278
v -0.45580293675047845 1.5068273230477334 -0.06656556194336961
v -0.40189893778493757 1.5021113342195354 0.17750843983661363
v -0.4892899916307978 0.7576087431099287 -0.07364628446454648
v -0.4353859926652568 0.7528927542817306 0.17042771731543677
vt 0.5625 0.1875
vt 0.609375 0.1875
vt 0.609375 0
vt 0.5625 0
vt 0.5 0.1875
vt 0.5625 0.1875
vt 0.5625 0
vt 0.5 0
vt 0.671875 0.1875
vt 0.71875 0.1875
vt 0.71875 0
vt 0.671875 0
vt 0.609375 0.1875
vt 0.671875 0.1875
vt 0.671875 0
vt 0.609375 0
vt 0.609375 0.1875
vt 0.5625 0.1875
vt 0.5625 0.25
vt 0.609375 0.25
vt 0.65625 0.25
vt 0.609375 0.25
vt 0.609375 0.1875
vt 0.65625 0.1875
vn -0.21561599586216376 0.018863955312791864 -0.976296007119933
vn 0.9754569046487559 -0.04155541457604615 -0.21623361138472702
vn 0.21561599586216376 -0.018863955312791864 0.976296007119933
vn -0.9754569046487559 0.04155541457604615 0.21623361138472702
vn 0.04464940650709241 0.9989581065837395 0.009440963361569143
vn -0.04464940650709241 -0.9989581065837395 -0.009440963361569143
usemtl m_8890fb92-5a47-bb23-30ad-143a7904f091
f 52/148/37 55/147/37 53/146/37 50/145/37
f 51/152/38 52/151/38 50/150/38 49/149/38
f 56/156/39 51/155/39 49/154/39 54/153/39
f 55/160/40 56/159/40 54/158/40 53/157/40
f 54/164/41 49/163/41 50/162/41 53/161/41
f 55/168/42 52/167/42 51/166/42 56/165/42
o Left Arm Layer
v -0.19969260711613934 1.5089843617473844 0.14898812768786446
v -0.2603346059523729 1.5142898491791073 -0.12559512431461672
v -0.2345749559498053 0.7285483409788381 0.14161237506163854
v -0.2952169547860388 0.7338538284105608 -0.13297087694084264
v -0.47371580384428824 1.5233800961176174 -0.07829402182420771
v -0.4130738050080547 1.5180746086858945 0.1962892301782735
v -0.5085981526779542 0.7429440753490709 -0.0856697744504336
v -0.4479561538417206 0.7376385879173483 0.18891347755204757
vt 0.8125 0.1875
vt 0.859375 0.1875
vt 0.859375 0
vt 0.8125 0
vt 0.75 0.1875
vt 0.8125 0.1875
vt 0.8125 0
vt 0.75 0
vt 0.921875 0.1875
vt 0.96875 0.1875
vt 0.96875 0
vt 0.921875 0
vt 0.859375 0.1875
vt 0.921875 0.1875
vt 0.921875 0
vt 0.859375 0
vt 0.859375 0.1875
vt 0.8125 0.1875
vt 0.8125 0.25
vt 0.859375 0.25
vt 0.90625 0.25
vt 0.859375 0.25
vt 0.859375 0.1875
vt 0.90625 0.1875
vn -0.21561599586216376 0.018863955312791864 -0.976296007119933
vn 0.9754569046487559 -0.04155541457604615 -0.21623361138472702
vn 0.21561599586216376 -0.018863955312791864 0.976296007119933
vn -0.9754569046487559 0.04155541457604615 0.21623361138472702
vn 0.04464940650709241 0.9989581065837395 0.009440963361569143
vn -0.04464940650709241 -0.9989581065837395 -0.009440963361569143
usemtl m_8890fb92-5a47-bb23-30ad-143a7904f091
f 60/172/43 63/171/43 61/170/43 58/169/43
f 59/176/44 60/175/44 58/174/44 57/173/44
f 64/180/45 59/179/45 57/178/45 62/177/45
f 63/184/46 64/183/46 62/182/46 61/181/46
f 62/188/47 57/187/47 58/186/47 61/185/47
f 63/192/48 60/191/48 59/190/48 64/189/48
o Right Leg
v 0.2200277820724927 0.774304185785412 0.09283598080240443
v 0.26343982648922526 0.7421683842680449 -0.15125966573885613
v 0.25224531521676197 0.032169762469775105 0.1962696710975153
v 0.29565735963349454 0.00003396095240796801 -0.04782597544374527
v 0.017472217927507295 0.7256958142145878 -0.19283598080240444
v -0.02593982648922529 0.757831615731955 0.05125966573885614
v 0.04968975107177653 -0.01643860910104911 -0.08940229050729356
v 0.006277706655043944 0.015697192416318027 0.154693356033967
vt 0.0625 0.6875
vt 0.125 0.6875
vt 0.125 0.5
vt 0.0625 0.5
vt 0 0.6875
vt 0.0625 0.6875
vt 0.0625 0.5
vt 0 0.5
vt 0.1875 0.6875
vt 0.25 0.6875
vt 0.25 0.5
vt 0.1875 0.5
vt 0.125 0.6875
vt 0.1875 0.6875
vt 0.1875 0.5
vt 0.125 0.5
vt 0.125 0.6875
vt 0.0625 0.6875
vt 0.0625 0.75
vt 0.125 0.75
vt 0.1875 0.75
vt 0.125 0.75
vt 0.125 0.6875
vt 0.1875 0.6875
vn 0.17364817766693033 -0.12854320606946856 -0.9763825861650424
vn 0.983870434246872 0.06589028021382831 0.1663052602541932
vn -0.17364817766693033 0.12854320606946856 0.9763825861650424
vn -0.983870434246872 -0.06589028021382831 -0.1663052602541932
vn -0.04295671085902565 0.9895125644208493 -0.13791158706014786
vn 0.04295671085902565 -0.9895125644208493 0.13791158706014786
usemtl m_8890fb92-5a47-bb23-30ad-143a7904f091
f 68/196/49 71/195/49 69/194/49 66/193/49
f 67/200/50 68/199/50 66/198/50 65/197/50
f 72/204/51 67/203/51 65/202/51 70/201/51
f 71/208/52 72/207/52 70/206/52 69/205/52
f 70/212/53 65/211/53 66/210/53 69/209/53
f 71/216/54 68/215/54 67/214/54 72/213/54
o Right Leg Layer
v 0.23201630622438205 0.7928033428276643 0.10853560985489019
v 0.28085485619320616 0.7566505661206263 -0.166071992504028
v 0.2655762365829959 0.01974665187387585 0.2162790372456307
v 0.31441478655182004 -0.016406124833162186 -0.05832856511328749
v 0.004141296561273437 0.7381189248104871 -0.21284534695051982
v -0.04469725340755072 0.7742717015175251 0.06176225540839836
v 0.037701226919887226 -0.034937766143301394 -0.10510191955977934
v -0.011137323048936942 0.0012150105637366397 0.16950568279913886
vt 0.0625 0.4375
vt 0.125 0.4375
vt 0.125 0.25
vt 0.0625 0.25
vt 0 0.4375
vt 0.0625 0.4375
vt 0.0625 0.25
vt 0 0.25
vt 0.1875 0.4375
vt 0.25 0.4375
vt 0.25 0.25
vt 0.1875 0.25
vt 0.125 0.4375
vt 0.1875 0.4375
vt 0.1875 0.25
vt 0.125 0.25
vt 0.125 0.4375
vt 0.0625 0.4375
vt 0.0625 0.5
vt 0.125 0.5
vt 0.1875 0.5
vt 0.125 0.5
vt 0.125 0.4375
vt 0.1875 0.4375
vn 0.17364817766693033 -0.12854320606946856 -0.9763825861650424
vn 0.983870434246872 0.06589028021382831 0.1663052602541932
vn -0.17364817766693033 0.12854320606946856 0.9763825861650424
vn -0.983870434246872 -0.06589028021382831 -0.1663052602541932
vn -0.04295671085902565 0.9895125644208493 -0.13791158706014786
vn 0.04295671085902565 -0.9895125644208493 0.13791158706014786
usemtl m_8890fb92-5a47-bb23-30ad-143a7904f091
f 76/220/55 79/219/55 77/218/55 74/217/55
f 75/224/56 76/223/56 74/222/56 73/221/56
f 80/228/57 75/227/57 73/226/57 78/225/57
f 79/232/58 80/231/58 78/230/58 77/229/58
f 78/236/59 73/235/59 74/234/59 77/233/59
f 79/240/60 76/239/60 75/238/60 80/237/60
o Left Leg
v 0.0061310276977322165 0.744547576579333 0.125
v 0.0061310276977322165 0.744547576579333 -0.125
v -0.026583512826269785 -0.00473858960706033 0.125
v -0.026583512826269785 -0.00473858960706033 -0.125
v -0.24363102769773223 0.755452423420667 -0.125
v -0.24363102769773223 0.755452423420667 0.125
v -0.27634556822173423 0.006166257234273671 -0.125
v -0.27634556822173423 0.006166257234273671 0.125
vt 0.3125 0.1875
vt 0.375 0.1875
vt 0.375 0
vt 0.3125 0
vt 0.25 0.1875
vt 0.3125 0.1875
vt 0.3125 0
vt 0.25 0
vt 0.4375 0.1875
vt 0.5 0.1875
vt 0.5 0
vt 0.4375 0
vt 0.375 0.1875
vt 0.4375 0.1875
vt 0.4375 0
vt 0.375 0
vt 0.375 0.1875
vt 0.3125 0.1875
vt 0.3125 0.25
vt 0.375 0.25
vt 0.4375 0.25
vt 0.375 0.25
vt 0.375 0.1875
vt 0.4375 0.1875
vn 0 0 -1
vn 0.9990482215818578 -0.043619387365336 0
vn 0 0 1
vn -0.9990482215818578 0.043619387365336 0
vn 0.043619387365336 0.9990482215818578 0
vn -0.043619387365336 -0.9990482215818578 0
usemtl m_8890fb92-5a47-bb23-30ad-143a7904f091
f 84/244/61 87/243/61 85/242/61 82/241/61
f 83/248/62 84/247/62 82/246/62 81/245/62
f 88/252/63 83/251/63 81/250/63 86/249/63
f 87/256/64 88/255/64 86/254/64 85/253/64
f 86/260/65 81/259/65 82/258/65 85/257/65
f 87/264/66 84/263/66 83/262/66 88/261/66
o Left Leg Layer
v 0.02242270908753212 0.7594761521139661 0.140625
v 0.02242270908753212 0.7594761521139661 -0.140625
v -0.011654937291636632 -0.021030270996860233 0.140625
v -0.011654937291636632 -0.021030270996860233 -0.140625
v -0.2585596032323654 0.771744104810467 -0.140625
v -0.2585596032323654 0.771744104810467 0.140625
v -0.29263724961153414 -0.008762318300359482 -0.140625
v -0.29263724961153414 -0.008762318300359482 0.140625
vt 0.0625 0.1875
vt 0.125 0.1875
vt 0.125 0
vt 0.0625 0
vt 0 0.1875
vt 0.0625 0.1875
vt 0.0625 0
vt 0 0
vt 0.1875 0.1875
vt 0.25 0.1875
vt 0.25 0
vt 0.1875 0
vt 0.125 0.1875
vt 0.1875 0.1875
vt 0.1875 0
vt 0.125 0
vt 0.125 0.1875
vt 0.0625 0.1875
vt 0.0625 0.25
vt 0.125 0.25
vt 0.1875 0.25
vt 0.125 0.25
vt 0.125 0.1875
vt 0.1875 0.1875
vn 0 0 -1
vn 0.9990482215818578 -0.043619387365336 0
vn 0 0 1
vn -0.9990482215818578 0.043619387365336 0
vn 0.043619387365336 0.9990482215818578 0
vn -0.043619387365336 -0.9990482215818578 0
usemtl m_8890fb92-5a47-bb23-30ad-143a7904f091
f 92/268/67 95/267/67 93/266/67 90/265/67
f 91/272/68 92/271/68 90/270/68 89/269/68
f 96/276/69 91/275/69 89/274/69 94/273/69
f 95/280/70 96/279/70 94/278/70 93/277/70
f 94/284/71 89/283/71 90/282/71 93/281/71
f 95/288/72 92/287/72 91/286/72 96/285/72